<svg xmlns="http://www.w3.org/2000/svg" width="1200" height="800" viewBox="0 0 1200 800">
  <defs>
    <linearGradient id="g" x1="0" y1="0" x2="1" y2="1">
      <stop offset="0" stop-color="#0f172a"/>
      <stop offset="1" stop-color="#1f2937"/>
    </linearGradient>
  </defs>
  <rect width="1200" height="800" fill="url(#g)"/>
  <rect x="140" y="290" width="920" height="220" rx="24" fill="#0b1220" stroke="#334155" stroke-width="4"/>
  <g fill="#e2e8f0" opacity="0.9">
    <rect x="200" y="340" width="70" height="50" rx="10"/>
    <rect x="290" y="340" width="70" height="50" rx="10"/>
    <rect x="380" y="340" width="70" height="50" rx="10"/>
    <rect x="470" y="340" width="70" height="50" rx="10"/>
    <rect x="560" y="340" width="70" height="50" rx="10"/>
    <rect x="650" y="340" width="70" height="50" rx="10"/>
    <rect x="740" y="340" width="70" height="50" rx="10"/>
    <rect x="830" y="340" width="70" height="50" rx="10"/>
    <rect x="920" y="340" width="80" height="50" rx="10"/>
  </g>
  <text x="160" y="160" fill="#e2e8f0" font-family="Arial, Helvetica, sans-serif" font-size="44" font-weight="700">
    Product Image
  </text>
</svg>




